<svg xmlns="http://www.w3.org/2000/svg" xmlns:xlink="http://www.w3.org/1999/xlink"><symbol id="down-arrow" viewBox="0 0 16 16">
<path fill-rule="evenodd" clip-rule="evenodd" d="M8 0C8.55228 0 9 0.447715 9 1L9 15C9 15.5523 8.55228 16 8 16C7.44772 16 7 15.5523 7 15L7 1C7 0.447715 7.44772 0 8 0Z" fill="white"/>
<path fill-rule="evenodd" clip-rule="evenodd" d="M15.7071 7.29289C16.0976 7.68342 16.0976 8.31658 15.7071 8.70711L8.70711 15.7071C8.31658 16.0976 7.68342 16.0976 7.29289 15.7071L0.292893 8.70711C-0.0976315 8.31658 -0.0976315 7.68342 0.292893 7.29289C0.683417 6.90237 1.31658 6.90237 1.70711 7.29289L8 13.5858L14.2929 7.29289C14.6834 6.90237 15.3166 6.90237 15.7071 7.29289Z" fill="white"/>
</symbol><symbol id="email" viewBox="0 0 26 20">
<path d="M24.2273 0H1.77273C0.768182 0 0 0.764706 0 1.76471V18.2353C0 19.2353 0.768182 20 1.77273 20H24.2273C25.2318 20 26 19.2353 26 18.2353V1.76471C26 0.764706 25.2318 0 24.2273 0ZM24.2273 17L19.5591 12.3529C19.2045 12 18.6727 12 18.3182 12.3529C17.9636 12.7059 17.9636 13.2353 18.3182 13.5882L22.9864 18.2353H3.01362L7.68182 13.5882C8.03636 13.2353 8.03636 12.7059 7.68182 12.3529C7.32727 12 6.79547 12 6.44092 12.3529L1.77273 17V5.70585L12.4091 13.7059C12.5864 13.8236 12.7637 13.8823 12.9409 13.8823C13.1182 13.8823 13.2954 13.8236 13.4727 13.7059L24.2273 5.70585V17ZM24.2273 1.76471V3.4706L12.9409 11.8235L1.77273 3.4706V1.76471H24.2273Z" fill="#D7D9DF"/>
</symbol><symbol id="phone" viewBox="0 0 17 24">
<path fill-rule="evenodd" clip-rule="evenodd" d="M5.14103 2.61452C5.10589 2.61495 5.04049 2.62208 4.93372 2.65376L4.9252 2.65628C4.13327 2.88349 3.54877 3.24444 3.09512 3.8844L3.08905 3.89295L3.08281 3.90138C2.54673 4.62458 2.31994 5.55583 2.39105 6.56334L2.39117 6.56495C2.43361 7.18037 2.51967 7.85118 2.69673 8.49835C3.92166 12.7134 5.95119 16.4385 8.76177 19.6415C9.3387 20.2916 10.0798 20.866 10.8397 21.3114L10.8449 21.3144C11.8784 21.9285 13.405 21.666 14.3765 20.6073L14.3839 20.5992C14.6275 20.3396 14.6246 20.2256 14.6236 20.1966C14.6214 20.1323 14.581 19.915 14.2098 19.4756C13.9328 19.1585 13.639 18.8598 13.3205 18.5365L13.3111 18.527C13.0036 18.2149 12.6725 17.8788 12.3536 17.5141C11.9647 17.0977 11.679 16.9159 11.4577 16.85C11.2758 16.7958 11.0274 16.7863 10.6144 16.9932C10.2621 17.1746 9.87538 17.3027 9.45984 17.2979C9.02229 17.293 8.6481 17.1421 8.33691 16.9223C8.04547 16.7164 7.80843 16.4498 7.61141 16.1985C7.41984 15.9542 7.22434 15.6689 7.03046 15.3859L7.00497 15.3487L7.0006 15.3421C6.26115 14.2263 5.83417 13.341 5.57232 12.798C5.53893 12.7288 5.50821 12.6651 5.47989 12.6072C5.08261 11.8269 4.70791 11.0364 4.67292 10.2531C4.63237 9.34516 5.03605 8.62793 5.6932 7.97717C5.80821 7.85475 5.9523 7.63614 6.06105 7.37613C6.1718 7.11132 6.20021 6.91351 6.19585 6.82269C6.08475 5.93004 5.85491 5.11161 5.60576 4.22445C5.48596 3.79788 5.3617 3.35542 5.24404 2.88118C5.20397 2.72827 5.16401 2.65017 5.14103 2.61452ZM6.14169 0.878562C6.72436 1.22426 7.02336 1.81469 7.17468 2.39807L7.17744 2.40871C7.26393 2.75763 7.36869 3.13211 7.47842 3.52412C7.74877 4.48995 8.04893 5.56228 8.17813 6.62139L8.18022 6.63851L8.18172 6.65569C8.22864 7.19196 8.08091 7.73837 7.90055 8.16962C7.71564 8.61172 7.44529 9.05478 7.12659 9.38633L7.11718 9.39611L7.10751 9.40563C6.68151 9.82504 6.65846 10.0318 6.66522 10.1834C6.6777 10.4626 6.82777 10.8724 7.25659 11.7143L7.26014 11.7212L7.26359 11.7283C7.2956 11.7936 7.32932 11.8634 7.36519 11.9377C7.62401 12.4737 7.99536 13.2427 8.65235 14.235C8.86308 14.5425 9.02415 14.7771 9.17263 14.9665C9.32365 15.1591 9.41765 15.2464 9.47198 15.2848C9.47467 15.2867 9.47707 15.2884 9.4792 15.2898C9.50899 15.2839 9.57699 15.2651 9.69385 15.2047L9.70359 15.1996C10.4688 14.8147 11.24 14.6993 12.0058 14.9272C12.7308 15.143 13.3178 15.629 13.8145 16.1637L13.8254 16.1754L13.8359 16.1874C14.1143 16.5066 14.4097 16.8069 14.7301 17.1321L14.7395 17.1416C15.0506 17.4574 15.3859 17.7977 15.7082 18.1673L15.7129 18.1727L15.7176 18.1783C16.2149 18.7651 16.591 19.4162 16.6167 20.1459C16.6435 20.909 16.2819 21.5123 15.8447 21.9795C14.3583 23.596 11.8304 24.2172 9.84616 23.0402C8.94064 22.5092 8.02252 21.8061 7.27769 20.9662L7.27422 20.9622C4.25909 17.5267 2.08635 13.5322 0.780683 9.03525L0.778626 9.02816L0.776672 9.02105C0.550348 8.19702 0.449637 7.37942 0.40164 6.68358C0.304213 5.29875 0.607316 3.87383 1.47334 2.70065C2.238 1.62636 3.2381 1.04972 4.35614 0.72826C4.90559 0.566079 5.55274 0.529129 6.14169 0.878562Z"/>
</symbol><symbol id="tick" viewBox="0 0 14 12">
<path fill-rule="evenodd" clip-rule="evenodd" d="M13.6138 0.210585C14.0498 0.549578 14.1285 1.17784 13.7895 1.61385L6.01453 11.6138C5.84138 11.8365 5.58223 11.9758 5.30094 11.9972C5.01966 12.0186 4.74242 11.9202 4.53757 11.7262L0.312502 7.72623C-0.0885582 7.34653 -0.105878 6.71361 0.273818 6.31255C0.653514 5.91149 1.28644 5.89417 1.6875 6.27386L5.11216 9.51608L12.2105 0.386246C12.5495 -0.0497617 13.1778 -0.128408 13.6138 0.210585Z"/>
</symbol></svg>